<?xml version="1.0" encoding="UTF-8"?> <svg xmlns="http://www.w3.org/2000/svg" id="Capa_2" data-name="Capa 2" viewBox="0 0 48 48"><defs><style> .cls-1 { fill: #087d78; } .cls-2 { fill: #0b807a; } .cls-3 { fill: none; } .cls-4 { fill: #91cecd; } .cls-5 { fill: #fdfdfd; } </style></defs><g id="Capa_1-2" data-name="Capa 1"><g><rect class="cls-3" width="48" height="48"></rect><g><path class="cls-4" d="M33.33,19.23c1.46-.33,1.39,1.78.13,1.53-.84-.17-.81-1.37-.13-1.53Z"></path><path class="cls-4" d="M14.05,27.28c.98-.2,1.46.99.63,1.44-1.09.59-1.69-1.21-.63-1.44Z"></path><g><path class="cls-4" d="M16.52,16c4.09-3.41,9.89-3.4,14.25-.48.36.24,1.23.82,1.33,1.22.18.68-.38,1.09-1.02.96-.4-.08-1.52-1.02-2.01-1.29-6.3-3.6-14.38.1-14.67,7.6-.02.39.12.85-.03,1.19-.22.52-1.03.67-1.39.23-.33-.41-.2-2.07-.14-2.62.3-2.65,1.64-5.1,3.66-6.79Z"></path><path class="cls-4" d="M24.6,33.69c5.08-.22,8.86-4.26,9.09-9.29.02-.39-.11-1.1.04-1.4.33-.67,1.47-.33,1.57.31.17,1.02-.07,2.65-.33,3.66-.97,3.83-3.88,6.83-7.66,7.88-.41-.53-1.2.18-1.46.11-.31-.08-.3-.61-.38-.72-.12-.15-.84-.11-.87-.54Z"></path><path class="cls-4" d="M24.6,33.69c.03.44.75.39.87.54.09.11.07.64.38.72.27.07,1.06-.64,1.46-.11-3.47.96-7.15.4-10.09-1.69-.47-.33-1.4-1.07-1.72-1.52-.47-.66.03-1.36.83-1.24.36.05.81.62,1.11.86,2.12,1.69,4.4,2.55,7.15,2.43Z"></path><g><path class="cls-1" d="M31.11,24.24c0,3.97-3.22,7.19-7.19,7.19s-7.19-3.22-7.19-7.19,3.22-7.19,7.19-7.19,7.19,3.22,7.19,7.19ZM20.17,23.83c1.57.7,3.66-.99,3.74-2.61.03-.67-.26-1.3-.93-1.5-1.82-.55-4.31,1.96-3.26,3.72.03.06.38.37.45.4ZM27.23,21.81c1.33.65,1.07-.8.42-1.43-.26-.25-1.47-.94-1.64-.42-.26.77.84,1.35,1.22,1.85Z"></path><path class="cls-5" d="M20.17,23.83c-.06-.03-.41-.34-.45-.4-1.05-1.76,1.44-4.27,3.26-3.72.67.2.96.83.93,1.5-.08,1.62-2.17,3.32-3.74,2.61Z"></path><path class="cls-5" d="M27.23,21.81c-.38-.51-1.48-1.09-1.22-1.85.17-.52,1.39.17,1.64.42.65.64.91,2.08-.42,1.43Z"></path></g></g></g><path class="cls-2" d="M41.56,16.47c2.01,1.69,3.87,3.5,5.48,5.61.35.46.99,1.14.88,1.73-.1.51-1.23,1.98-1.6,2.46-5.82,7.54-15.22,13.54-25.12,12.22-7.94-1.06-15.77-6.77-20.27-13.23-.32-.45-1.02-1.32-.81-1.87.08-.22.61-.88.78-1.12,2.74-3.73,6.92-7.43,10.96-9.7,10.33-5.81,20.99-3.43,29.71,3.89ZM42.1,19.13c-7.09-6.65-16.23-10.22-25.84-6.69-5.15,1.89-10.06,5.86-13.48,10.1-.16.2-.71.85-.75,1.04-.05.23.06.47.18.66.44.72,1.3,1.7,1.87,2.36,5.22,6.05,12.99,11.04,21.33,10.44,7.46-.54,14.38-5.42,19-11.03.36-.44,1.44-1.7,1.58-2.16.08-.29.05-.36-.1-.61-.72-1.24-2.71-3.08-3.79-4.1Z"></path></g></g></svg> 